<svg id="Layer_1" data-name="Layer 1" xmlns="http://www.w3.org/2000/svg" viewBox="0 0 25 25"><defs><style>.cls-1{fill:red;}</style></defs><path class="cls-1" d="M16,9.06a.58.58,0,0,0-.58.58V20.71a.59.59,0,0,0,1.17,0V9.64A.58.58,0,0,0,16,9.06Z"/><path class="cls-1" d="M9.05,9.06a.58.58,0,0,0-.59.58V20.71a.59.59,0,0,0,1.17,0V9.64A.58.58,0,0,0,9.05,9.06Z"/><path class="cls-1" d="M4,7.44V21.87a3.23,3.23,0,0,0,.86,2.23A2.89,2.89,0,0,0,7,25H18a2.89,2.89,0,0,0,2.09-.9A3.23,3.23,0,0,0,21,21.87V7.44A2.24,2.24,0,0,0,20.42,3h-3V2.31A2.3,2.3,0,0,0,15.1,0H9.9A2.3,2.3,0,0,0,7.58,2.31V3h-3A2.24,2.24,0,0,0,4,7.44ZM18,23.83H7a1.85,1.85,0,0,1-1.78-2V7.49H19.82V21.87A1.85,1.85,0,0,1,18,23.83ZM8.75,2.31A1.14,1.14,0,0,1,9.9,1.17h5.2a1.14,1.14,0,0,1,1.15,1.14V3H8.75ZM4.58,4.22H20.42a1.05,1.05,0,1,1,0,2.1H4.58a1.05,1.05,0,1,1,0-2.1Z"/><path class="cls-1" d="M12.5,9.06a.59.59,0,0,0-.59.58V20.71a.59.59,0,0,0,1.18,0V9.64A.59.59,0,0,0,12.5,9.06Z"/></svg>