<svg id="Layer_1" data-name="Layer 1" xmlns="http://www.w3.org/2000/svg" viewBox="0 0 100 100"><defs><style>.cls-1{fill:#f7931e;}</style></defs><path class="cls-1" d="M99.45,48.29c-.89-1.24-22.17-30.52-49.25-30.52S1.44,47.05.55,48.29a2.94,2.94,0,0,0,0,3.42C1.44,53,23.11,82.23,50.2,82.23S98.56,53,99.45,51.71A2.94,2.94,0,0,0,99.45,48.29ZM50.2,70.51c-11.31,0-20.9-9.2-20.9-20.51s9.59-20.51,20.9-20.51a20.51,20.51,0,0,1,0,41Z"/><path class="cls-1" d="M50.2,41.21C45.35,41.21,41,45.15,41,50s4.33,8.79,9.18,8.79a8.79,8.79,0,0,0,0-17.58Z"/></svg>