<svg id="Layer_1" data-name="Layer 1" xmlns="http://www.w3.org/2000/svg" viewBox="0 0 25 25"><defs><style>.cls-1{fill:#f15a24;}</style></defs><path class="cls-1" d="M23.07,15.67a.63.63,0,0,0-.62.63v5.52a1.87,1.87,0,0,1-1.87,1.87H3.11a1.86,1.86,0,0,1-1.86-1.87V5.6A1.87,1.87,0,0,1,3.11,3.73H8.64a.62.62,0,0,0,.62-.62.61.61,0,0,0-.62-.62H3.11A3.11,3.11,0,0,0,0,5.6V21.82a3.12,3.12,0,0,0,3.11,3.12H20.58a3.13,3.13,0,0,0,3.12-3.12V16.3A.63.63,0,0,0,23.07,15.67Z"/><path class="cls-1" d="M23.45.88a2.81,2.81,0,0,0-4,0L8.38,12a.61.61,0,0,0-.16.28L6.76,17.54a.62.62,0,0,0,.16.61.65.65,0,0,0,.61.16l5.27-1.47a.5.5,0,0,0,.27-.16L24.18,5.58a2.82,2.82,0,0,0,0-4ZM9.74,12.4l9.09-9.1,2.93,2.94-9.09,9.09Zm-.59,1.17,2.34,2.34-3.24.9ZM23.3,4.7l-.66.66L19.71,2.42l.66-.66a1.57,1.57,0,0,1,2.2,0l.73.73A1.56,1.56,0,0,1,23.3,4.7Z"/></svg>